<?xml version="1.0" standalone="no"?>
<!DOCTYPE svg PUBLIC "-//W3C//DTD SVG 20010904//EN"
 "http://www.w3.org/TR/2001/REC-SVG-20010904/DTD/svg10.dtd">
<svg version="1.0" xmlns="http://www.w3.org/2000/svg"
 width="1536.000000pt" height="1536.000000pt" viewBox="0 0 1536.000000 1536.000000"
 preserveAspectRatio="xMidYMid meet">

<g transform="translate(0.000000,1536.000000) scale(0.100000,-0.100000)"
fill="#000000" stroke="none">
<path d="M5109 12460 c-26 -15 -64 -134 -53 -164 9 -23 24 -20 24 5 0 31 48
93 92 118 46 26 48 37 7 45 -41 8 -51 7 -70 -4z"/>
<path d="M5505 12460 c-100 -3 -135 -7 -105 -11 56 -8 125 -52 141 -91 8 -20
10 -55 4 -116 -15 -167 -14 -294 2 -345 12 -40 13 -62 4 -121 -6 -42 -7 -85
-2 -102 4 -16 5 -54 1 -84 -4 -30 -4 -93 1 -139 6 -67 5 -91 -8 -122 -20 -50
-86 -107 -132 -115 -51 -8 -109 -34 -116 -52 -3 -8 0 -21 7 -29 13 -16 129
-13 233 7 33 6 116 14 184 18 100 6 126 10 134 24 16 25 -9 48 -52 48 -86 1
-148 48 -184 139 -15 38 -17 71 -15 191 1 80 -3 161 -9 181 -7 25 -7 53 0 92
8 42 7 79 -3 141 -13 83 -10 360 4 396 6 14 37 35 99 67 32 17 27 34 -11 31
-15 -1 -94 -5 -177 -8z"/>
<path d="M5944 12458 c-4 -5 3 -22 15 -36 43 -54 46 -67 26 -130 -15 -53 -16
-62 -2 -88 8 -16 17 -45 21 -64 4 -19 16 -46 27 -59 30 -36 41 -12 33 74 -3
39 -7 106 -8 150 -4 111 -26 149 -93 161 -7 1 -16 -2 -19 -8z"/>
<path d="M8320 12457 c-27 -9 -35 -17 -35 -37 0 -22 8 -28 60 -45 77 -26 82
-29 104 -73 17 -34 37 -171 40 -277 1 -39 15 -65 27 -52 7 7 8 77 4 242 -1 50
1 97 5 106 3 9 28 27 56 39 60 29 82 50 50 50 -12 0 -41 9 -64 21 -23 11 -78
24 -122 29 -94 11 -81 12 -125 -3z"/>
<path d="M12230 12461 c-30 -4 -68 -13 -84 -20 -17 -7 -62 -15 -100 -18 -88
-7 -112 -19 -185 -94 -55 -56 -62 -68 -98 -177 l-38 -117 0 -185 c0 -153 3
-192 18 -228 9 -23 17 -64 17 -90 0 -27 11 -82 25 -122 14 -40 25 -80 25 -88
0 -24 54 -100 80 -112 13 -6 40 -29 58 -51 18 -21 42 -39 51 -39 10 0 30 -9
43 -20 31 -24 154 -44 219 -36 46 6 209 72 230 93 14 14 -10 63 -31 63 -10 0
-49 -15 -86 -32 -58 -28 -79 -33 -131 -31 -39 1 -76 9 -100 22 -21 11 -51 27
-68 35 -55 27 -232 210 -263 273 -33 65 -49 325 -26 418 6 28 19 88 28 135 9
46 25 102 36 125 30 60 115 142 179 173 54 26 60 27 156 21 93 -6 218 -34 261
-57 47 -25 97 -106 118 -190 8 -31 21 -75 29 -97 26 -70 38 -237 27 -385 -11
-164 -21 -207 -66 -288 -18 -34 -34 -64 -34 -66 0 -2 19 6 41 17 50 25 74 62
83 129 4 28 14 64 22 79 7 15 14 52 15 81 0 29 6 84 13 123 10 59 9 84 -6 175
-9 58 -26 130 -37 160 -11 30 -20 74 -21 98 0 51 -23 89 -115 192 -103 115
-170 145 -285 131z"/>
<path d="M7676 12445 c-12 -12 -16 -30 -14 -59 3 -38 7 -43 47 -62 95 -46 103
-77 116 -458 6 -165 11 -200 25 -191 6 4 10 80 10 186 0 174 1 181 25 219 36
57 60 67 93 38 41 -36 49 -49 72 -113 25 -67 77 -155 92 -155 15 0 -17 109
-79 270 -14 36 -39 101 -56 145 -39 104 -55 129 -103 161 -33 23 -53 28 -125
32 -72 4 -88 2 -103 -13z"/>
<path d="M10387 12439 c-48 -25 -56 -46 -27 -66 12 -9 28 -30 36 -49 15 -36
37 -332 28 -370 -9 -33 7 -29 31 8 32 50 67 71 104 63 20 -4 36 -15 41 -28 4
-12 16 -42 26 -65 17 -42 18 -43 27 -20 17 44 -2 213 -34 299 -16 44 -29 98
-29 119 0 52 -30 85 -100 110 -65 24 -56 24 -103 -1z m167 -231 c20 -29 20
-82 0 -102 -23 -24 -61 -20 -80 9 -18 27 -13 51 17 89 25 32 43 33 63 4z"/>
<path d="M6858 12435 c-4 -4 -101 -9 -215 -11 -225 -4 -304 -12 -310 -31 -3
-7 16 -22 41 -34 44 -20 106 -79 106 -99 0 -19 18 -10 24 13 9 32 63 87 94 96
15 5 115 6 223 4 150 -3 213 0 270 12 97 20 132 19 160 -4 21 -17 24 -29 26
-93 4 -130 15 -217 30 -230 19 -15 36 8 27 37 -3 11 -7 52 -10 90 -3 39 -14
102 -26 141 -19 65 -24 73 -62 94 -31 17 -47 20 -62 13 -21 -10 -122 -10 -234
2 -41 4 -78 4 -82 0z"/>
<path d="M9479 12436 c-3 -4 -111 -8 -240 -10 -230 -4 -295 -13 -286 -39 2 -6
24 -19 48 -27 36 -13 49 -25 74 -67 17 -29 33 -52 37 -53 3 0 12 16 18 35 6
19 29 50 51 69 l40 34 226 -5 c188 -3 232 -1 265 11 21 9 60 16 86 16 40 0 53
-5 77 -30 28 -29 28 -31 29 -154 1 -103 4 -129 18 -142 14 -14 20 -15 32 -5
13 11 13 17 0 54 -8 23 -18 80 -21 127 -6 89 -20 125 -67 169 -20 19 -31 22
-58 16 -42 -10 -151 -10 -248 0 -41 4 -78 4 -81 1z"/>
<path d="M13730 12413 c-24 -10 -49 -12 -80 -8 -25 4 -112 6 -195 5 -123 -1
-158 -5 -194 -21 -24 -10 -48 -19 -53 -19 -17 0 -87 -62 -111 -99 -14 -20 -30
-63 -37 -97 -28 -140 34 -250 180 -318 44 -21 87 -35 95 -32 9 3 35 -1 58 -8
54 -18 126 -29 203 -31 55 -1 68 -6 132 -49 123 -82 139 -113 129 -263 -5 -80
-7 -87 -38 -120 -19 -19 -50 -44 -69 -56 -19 -11 -64 -43 -99 -70 -35 -27 -80
-54 -100 -59 -20 -6 -43 -16 -52 -24 -12 -11 -30 -13 -71 -8 -39 5 -58 3 -63
-6 -12 -19 16 -31 60 -26 81 9 135 23 153 39 11 10 35 17 60 17 33 0 50 7 79
34 21 18 47 36 59 40 12 4 35 22 53 41 24 26 31 44 31 74 0 31 6 43 26 58 23
17 26 26 28 98 2 49 -3 93 -11 114 -17 44 -84 123 -120 141 -15 8 -46 26 -68
39 -22 14 -59 26 -81 27 -23 1 -59 7 -80 13 -22 6 -68 11 -105 11 -55 0 -77 6
-145 39 -135 66 -192 149 -179 260 10 78 69 140 174 180 110 42 143 46 214 27
185 -51 174 -45 233 -139 18 -28 40 -67 48 -84 8 -18 18 -33 22 -33 13 0 -4
244 -20 282 -20 47 -24 49 -66 31z"/>
<path d="M11130 12399 c-55 -25 -63 -38 -71 -114 -12 -107 -28 -189 -48 -245
-13 -36 -20 -81 -21 -129 0 -92 13 -85 42 20 22 85 46 121 88 139 42 17 74 0
97 -54 13 -32 18 -71 19 -174 1 -123 6 -154 19 -140 7 7 23 135 31 250 6 76 4
95 -16 150 -21 57 -22 67 -10 130 12 71 43 121 80 133 11 4 20 13 20 21 0 38
-155 47 -230 13z"/>
<path d="M6912 12030 c0 -14 2 -19 5 -12 2 6 2 18 0 25 -3 6 -5 1 -5 -13z"/>
<path d="M1271 11977 c-42 -13 -95 -65 -119 -115 -16 -34 -17 -104 -20 -933
l-3 -895 21 -27 21 -27 1379 0 c1318 0 1379 1 1400 18 l23 18 0 905 c1 1003 6
923 -64 1004 -60 68 6 65 -1368 64 -860 -1 -1246 -4 -1270 -12z m1517 -379 c7
-7 12 -25 12 -42 0 -31 -37 -164 -70 -251 -24 -63 -110 -337 -110 -350 0 -5
-27 -86 -60 -180 -33 -93 -74 -215 -91 -270 -38 -126 -73 -162 -133 -139 -41
16 -39 38 24 237 34 105 77 242 96 302 19 61 52 160 74 220 22 61 63 184 92
275 33 106 60 173 75 188 24 24 72 29 91 10z m-513 -261 c22 -17 14 -75 -14
-101 -10 -9 -128 -67 -262 -127 -134 -60 -253 -119 -264 -129 -17 -17 -18 -22
-5 -34 8 -7 44 -25 80 -39 36 -14 141 -62 233 -106 92 -45 171 -81 176 -81 17
0 61 -58 61 -82 0 -39 -24 -54 -68 -41 -37 11 -289 124 -512 230 -142 67 -160
83 -160 138 0 30 6 47 23 62 23 21 165 91 393 194 72 32 159 74 195 93 71 38
96 43 124 23z m811 -68 c282 -126 481 -226 498 -250 21 -30 20 -78 -2 -106
-16 -21 -155 -94 -347 -183 -49 -23 -141 -67 -203 -97 -96 -47 -118 -55 -140
-47 -40 14 -43 70 -5 105 23 21 363 180 490 229 18 7 38 18 44 26 22 27 -4 44
-221 139 -169 74 -310 147 -325 167 -15 23 -20 69 -8 81 17 18 73 1 219 -64z"/>
<path d="M9520 11908 c-1 -39 -92 -95 -132 -82 -12 3 -38 1 -59 -6 -35 -12
-39 -17 -39 -47 0 -28 3 -33 24 -33 14 0 32 7 40 16 9 8 16 11 16 6 0 -5 21
-15 46 -22 25 -7 61 -24 80 -37 19 -12 38 -23 41 -23 3 0 3 24 0 53 -4 29 -2
70 4 90 11 40 4 97 -12 97 -5 0 -9 -6 -9 -12z"/>
<path d="M6855 11854 c-31 -29 -42 -34 -67 -29 -29 7 -118 -11 -118 -24 0 -3
-3 -16 -6 -27 -5 -19 0 -23 33 -28 21 -4 59 -7 84 -6 52 1 96 -28 130 -85 l19
-30 0 42 c0 23 -5 45 -11 49 -8 5 -10 33 -5 90 7 98 0 104 -59 48z"/>
<path d="M10675 11778 c17 -163 25 -220 40 -254 8 -20 18 -69 21 -108 4 -39
13 -87 21 -106 47 -108 75 -160 88 -160 23 0 65 64 65 98 0 35 -14 41 -41 16
-22 -20 -54 -11 -75 21 -19 30 -10 69 21 85 l24 13 -42 41 c-46 45 -61 81 -76
191 -6 39 -15 86 -21 105 -5 19 -10 52 -10 72 0 20 -5 40 -11 43 -7 5 -8 -13
-4 -57z"/>
<path d="M10419 11793 c-15 -43 -16 -136 -4 -328 10 -178 3 -201 -75 -249 -35
-22 -60 -44 -60 -54 0 -37 16 -45 104 -48 72 -3 94 -1 126 16 22 11 40 26 40
33 0 7 -20 27 -45 45 -37 26 -47 40 -60 86 -12 42 -14 60 -5 76 15 29 18 436
3 451 -8 8 -14 0 -24 -28z"/>
<path d="M8496 11754 c-7 -19 3 -64 15 -64 12 0 12 67 0 74 -5 3 -12 -1 -15
-10z"/>
<path d="M6489 11738 c-1 -7 -3 -65 -5 -128 -4 -127 2 -193 19 -187 7 2 10 41
9 109 -1 92 1 109 18 131 26 33 25 51 -5 71 -29 19 -35 20 -36 4z"/>
<path d="M8180 11744 c0 -10 30 -98 62 -176 11 -31 28 -28 28 3 0 37 -89 207
-90 173z"/>
<path d="M9117 11743 c-10 -9 -9 -113 1 -113 12 0 42 55 42 77 0 29 -27 52
-43 36z"/>
<path d="M11240 11606 c0 -14 5 -28 10 -31 6 -4 10 5 8 24 -3 37 -18 42 -18 7z"/>
<path d="M9107 11584 c-7 -40 9 -69 18 -32 4 15 3 34 -3 44 -8 14 -10 12 -15
-12z"/>
<path d="M7279 11534 c-9 -11 -13 -50 -14 -129 0 -84 -4 -117 -15 -131 -39
-50 -68 -75 -95 -83 -16 -6 -140 -12 -275 -16 l-245 -6 -45 25 c-58 31 -84 66
-83 111 1 33 -15 62 -18 33 -1 -7 -3 -22 -4 -33 -3 -28 -62 -112 -96 -137 -17
-13 -29 -31 -29 -44 0 -32 55 -41 140 -25 36 7 173 15 305 17 132 3 262 9 288
14 26 6 67 10 90 10 23 1 53 7 66 14 74 41 120 396 51 396 -4 0 -14 -7 -21
-16z"/>
<path d="M9906 11538 c-21 -73 -28 -129 -18 -155 5 -17 8 -41 5 -55 -7 -34
-73 -120 -105 -136 -37 -17 -482 -27 -541 -12 -47 13 -102 60 -121 105 l-13
30 -11 -38 c-7 -26 -30 -57 -68 -93 -57 -53 -57 -54 -39 -74 22 -24 63 -25
185 -6 47 7 171 14 275 15 105 1 219 6 255 12 35 6 74 8 86 5 66 -17 115 49
145 192 20 97 20 163 -1 202 -12 23 -29 26 -34 8z"/>
<path d="M7846 11498 c8 -40 6 -145 -5 -185 -5 -21 -14 -60 -20 -88 -24 -120
-24 -114 0 -123 12 -5 47 -4 78 2 31 5 75 9 99 8 32 -1 42 3 42 15 0 11 -8 14
-30 11 -16 -3 -30 -1 -30 4 0 4 -17 19 -38 33 -20 13 -46 41 -56 60 -17 31
-18 43 -9 88 6 31 7 61 2 75 -5 13 -9 38 -9 57 0 38 -8 65 -20 65 -5 0 -7 -10
-4 -22z"/>
<path d="M9105 11510 c-3 -5 -1 -18 4 -27 9 -16 10 -14 11 10 0 28 -5 34 -15
17z"/>
<path d="M10926 11481 c-10 -19 -27 -43 -37 -55 -25 -27 -20 -51 10 -51 19 0
27 8 38 40 8 22 12 54 11 70 l-3 30 -19 -34z"/>
<path d="M8286 11450 c3 -19 15 -47 25 -62 10 -15 19 -30 19 -34 0 -16 100
-212 114 -223 12 -10 23 -10 47 -2 53 18 59 36 39 105 l-17 61 -41 -3 c-61 -5
-78 4 -102 56 -12 26 -32 58 -45 72 -12 14 -27 34 -33 45 -10 17 -11 14 -6
-15z"/>
<path d="M11250 11410 c0 -16 5 -30 10 -30 6 0 10 14 10 30 0 17 -4 30 -10 30
-5 0 -10 -13 -10 -30z"/>
<path d="M13017 11340 c-3 -19 -6 -63 -6 -97 -1 -51 2 -66 22 -89 23 -27 26
-27 64 -16 50 15 103 15 140 1 55 -22 80 -27 94 -19 20 13 -8 40 -41 40 -43 0
-224 138 -256 195 -10 18 -11 16 -17 -15z"/>
<path d="M11207 11166 c-11 -27 24 -45 52 -27 12 8 12 12 2 25 -16 20 -47 21
-54 2z"/>
<path d="M11309 11139 c-10 -6 -4 -9 19 -9 17 0 32 2 32 4 0 9 -39 13 -51 5z"/>
<path d="M7670 11120 c0 -5 9 -10 20 -10 11 0 20 5 20 10 0 6 -9 10 -20 10
-11 0 -20 -4 -20 -10z"/>
<path d="M7042 10632 c-33 -36 -30 -51 9 -52 22 0 61 45 57 66 -5 30 -31 25
-66 -14z"/>
<path d="M7578 10251 c-25 -16 -48 -37 -52 -46 -8 -23 18 -52 63 -71 41 -17
55 -33 85 -99 20 -43 24 -74 30 -210 4 -88 7 -171 8 -185 0 -14 0 -72 -1 -130
0 -142 4 -238 14 -342 7 -83 7 -89 -16 -123 -16 -23 -43 -43 -81 -59 -59 -26
-74 -51 -45 -73 22 -18 285 -24 353 -8 34 8 74 11 90 8 50 -12 102 -6 141 15
21 12 65 34 99 51 106 52 142 102 199 275 41 127 48 174 46 311 -2 114 -40
333 -67 390 -27 55 -65 118 -94 155 -37 46 -173 139 -208 142 -15 1 -49 3 -77
5 -27 1 -90 7 -140 12 -49 5 -137 10 -196 10 -99 1 -108 -1 -151 -28z m581
-122 c15 -11 46 -23 69 -26 57 -8 118 -61 133 -116 6 -23 22 -63 35 -89 14
-28 24 -65 24 -91 0 -23 7 -69 15 -100 20 -76 20 -268 1 -305 -7 -15 -19 -54
-26 -87 -7 -33 -18 -75 -26 -93 -19 -46 -79 -116 -122 -144 -19 -13 -54 -35
-77 -49 -23 -15 -76 -33 -118 -42 -68 -14 -82 -14 -134 -1 -133 35 -171 97
-159 258 4 50 9 192 12 316 3 124 6 250 6 280 1 30 0 90 -3 132 -4 76 -4 77
31 113 44 45 94 60 215 63 83 2 99 -1 124 -19z"/>
<path d="M9145 10269 c-85 -17 -143 -22 -223 -20 -91 3 -132 -12 -132 -49 0
-37 98 -54 151 -26 14 7 62 16 107 20 79 7 81 7 97 -18 12 -18 15 -36 10 -58
-3 -18 -6 -44 -5 -58 0 -14 3 -236 6 -493 5 -460 5 -469 -16 -512 -17 -34 -32
-49 -78 -71 -48 -24 -73 -30 -162 -34 l-105 -5 0 -30 c0 -28 2 -30 35 -28 119
9 510 11 535 3 17 -5 59 -12 95 -15 70 -7 90 3 104 50 12 42 -5 49 -118 46
-118 -3 -162 11 -198 60 -20 27 -21 44 -24 261 -2 128 -4 238 -4 243 -5 46 12
489 19 507 5 13 29 46 54 73 42 46 48 50 108 57 126 15 151 20 156 35 3 8 -3
24 -14 35 -17 16 -24 18 -42 9 -14 -8 -45 -9 -94 -5 -39 4 -91 7 -113 6 -23
-1 -57 4 -75 11 -23 9 -47 11 -74 6z"/>
<path d="M10216 10270 c-32 -6 -71 -17 -85 -27 -14 -10 -47 -27 -73 -39 -25
-12 -54 -35 -64 -51 -10 -15 -32 -46 -49 -68 -52 -65 -63 -95 -74 -205 -7 -58
-17 -141 -23 -186 -6 -44 -8 -98 -4 -120 3 -21 10 -84 15 -139 4 -55 15 -113
23 -130 9 -16 19 -45 23 -64 12 -55 64 -163 93 -194 15 -16 44 -36 65 -44 20
-8 37 -18 37 -22 0 -4 24 -17 53 -28 43 -18 69 -21 155 -18 60 1 108 7 115 14
6 6 23 11 37 11 16 0 35 10 48 25 12 14 33 25 46 25 13 0 31 3 40 6 15 6 45
-19 90 -76 28 -35 33 -15 40 171 4 91 11 203 15 249 9 83 9 85 55 128 69 64
64 73 -61 101 -44 11 -63 10 -123 -5 -105 -25 -112 -57 -22 -106 17 -9 41 -32
52 -50 29 -46 22 -96 -29 -201 -22 -48 -41 -89 -41 -92 0 -8 -61 -86 -80 -103
-31 -27 -120 -63 -162 -65 -24 -1 -72 5 -108 12 -36 7 -75 15 -87 17 -26 5
-135 146 -169 219 -13 28 -24 67 -24 89 0 21 -7 69 -17 107 -14 59 -14 78 -4
136 7 38 13 138 14 223 l2 155 32 56 c18 31 49 73 68 93 20 21 43 52 51 69 34
66 33 66 172 60 93 -4 138 -11 169 -24 72 -32 183 -167 183 -222 0 -58 70
-159 89 -128 19 31 21 107 5 141 -12 24 -18 63 -19 137 -2 120 -8 133 -58 115
-66 -24 -161 -8 -208 34 -21 19 -125 26 -203 14z"/>
<path d="M11630 10250 c-83 -20 -160 -33 -225 -39 -38 -4 -80 -13 -91 -19 -37
-20 -112 -111 -119 -145 -4 -17 -15 -48 -25 -67 -10 -20 -21 -58 -25 -85 -4
-28 -13 -56 -19 -64 -7 -9 -10 -68 -9 -176 2 -131 6 -174 24 -230 11 -37 18
-80 15 -94 -3 -14 6 -59 19 -101 13 -41 26 -88 30 -103 7 -37 151 -185 208
-214 88 -46 104 -51 193 -58 l92 -7 59 35 c33 19 70 38 82 42 33 10 60 43 53
67 -4 17 -10 19 -50 13 -24 -4 -62 -16 -84 -27 -53 -28 -156 -30 -223 -4 -48
19 -195 130 -195 148 0 4 -24 35 -54 67 -89 97 -89 97 -102 348 -4 85 -2 128
10 176 9 35 16 87 16 115 0 74 32 130 131 235 l84 87 70 2 c118 4 215 -4 258
-21 15 -6 39 -14 52 -17 13 -3 47 -27 74 -52 45 -43 53 -57 82 -147 60 -191
64 -218 63 -395 -1 -177 -24 -309 -65 -376 -37 -62 -14 -87 33 -36 48 51 51
63 94 326 11 69 14 123 9 175 -7 74 -27 170 -41 192 -3 6 -9 50 -13 98 -7 76
-12 94 -41 137 -46 67 -156 172 -205 194 -49 22 -118 30 -165 20z"/>
<path d="M5395 10241 c-67 -11 -134 -37 -163 -64 -13 -12 -50 -75 -83 -141
-55 -110 -59 -124 -59 -187 0 -73 -14 -196 -31 -272 -9 -38 -8 -66 6 -140 10
-50 17 -104 16 -119 -1 -18 10 -39 30 -62 17 -19 35 -50 40 -69 5 -18 15 -42
24 -52 14 -19 14 -19 15 9 0 16 -9 43 -19 60 -17 28 -27 65 -50 201 -7 40 0
198 17 390 16 176 88 284 228 341 83 34 128 35 214 4 99 -36 171 -95 216 -179
14 -25 41 -71 59 -101 19 -30 39 -62 44 -70 21 -35 30 12 35 188 5 145 3 189
-8 216 -18 44 -45 52 -88 26 -45 -27 -130 -27 -192 1 -52 23 -169 32 -251 20z"/>
<path d="M6690 10238 c-14 -5 -68 -16 -120 -24 -67 -10 -105 -22 -128 -38 -39
-28 -112 -121 -112 -143 0 -8 -6 -29 -14 -46 -30 -67 -57 -193 -57 -267 0 -41
0 -113 0 -159 0 -58 7 -102 21 -142 11 -33 20 -77 20 -98 0 -22 5 -52 11 -68
6 -15 17 -54 25 -85 15 -64 65 -137 122 -181 20 -15 40 -34 45 -42 11 -21 128
-74 187 -85 97 -18 150 -13 199 20 24 17 50 30 57 30 24 0 74 51 74 76 0 33
-38 32 -110 -3 -48 -23 -66 -26 -144 -24 -72 1 -93 5 -115 22 -14 11 -40 30
-58 42 -79 55 -133 100 -133 110 0 6 -18 29 -39 52 -59 61 -91 129 -91 195 0
30 -4 69 -8 85 -8 27 -3 150 13 323 3 35 15 87 26 117 21 58 93 158 132 184
94 64 85 61 205 61 134 0 220 -19 288 -64 66 -43 88 -79 135 -225 37 -116 41
-137 46 -266 7 -197 -22 -399 -63 -446 -18 -20 -18 -49 0 -49 36 0 76 74 76
140 0 22 6 51 14 63 20 30 40 233 32 318 -3 39 -16 105 -28 147 -12 42 -22
104 -22 137 -1 64 -21 108 -70 154 -14 14 -26 29 -26 34 0 5 -31 40 -68 77
-46 45 -79 69 -102 73 -49 10 -192 7 -220 -5z"/>
<path d="M740 9878 c-27 -10 -33 -58 -28 -216 4 -129 6 -141 34 -191 16 -30
46 -68 67 -85 l39 -31 1701 -3 c936 -1 1712 0 1724 3 36 9 92 64 121 119 24
47 26 62 30 206 4 140 2 158 -15 178 l-19 24 -1817 1 c-1000 1 -1827 -1 -1837
-5z m2128 -264 c26 -18 28 -41 5 -66 -15 -17 -37 -18 -288 -18 -256 0 -273 1
-289 19 -10 11 -16 28 -14 38 7 38 42 43 308 43 215 0 259 -2 278 -16z"/>
<path d="M5856 9458 c-3 -13 -9 -54 -15 -93 -14 -95 -68 -222 -107 -256 -19
-16 -82 -50 -164 -86 -30 -14 -76 -23 -139 -26 -51 -3 -96 -8 -99 -12 -8 -8
56 -71 76 -74 70 -12 130 -4 187 23 33 15 80 38 105 50 75 35 139 114 155 189
3 15 21 45 41 67 29 32 37 50 45 106 8 59 7 70 -12 100 -25 41 -66 47 -73 12z"/>
</g>
</svg>
